Coordinates
version=1
nRows=24
nColumns=19
inDegrees=yes

Units are S.I. units (second, meters, Newtons, ...)
If the header above contains a line with 'inDegrees', this indicates whether rotational values are in degrees (yes) or radians (no).

endheader
time	pelvis_tilt	pelvis_list	pelvis_rotation	pelvis_tx	pelvis_ty	pelvis_tz	hip_flexion_r	hip_adduction_r	hip_rotation_r	knee_angle_r	knee_angle_r_beta	ankle_angle_r	hip_flexion_l	hip_adduction_l	hip_rotation_l	knee_angle_l	knee_angle_l_beta	ankle_angle_l
     16.85333333	      0.54480825	     11.74365409	     -1.97294787	      2.38321904	      0.99742354	      1.03149841	    -13.04951831	    -12.55654614	      0.90849114	     89.46533860	      1.56146473	    -18.72474654	     31.11833508	     11.23232296	    -17.02967800	     32.37665042	      0.56507915	      1.33768824
     16.86000000	      0.49581552	     11.61988915	     -1.21161374	      2.38209350	      0.99282668	      1.03149779	    -11.16886927	    -11.95094685	      0.94071029	     93.21032437	      1.62682706	    -17.81070117	     30.65718410	     11.31356408	    -16.75282726	     34.68204775	      0.60531592	      3.08684191
     16.86666667	      0.92535882	     11.84302926	     -0.52180036	      2.38089772	      0.98881309	      1.03145645	     -9.79233741	    -11.95540988	      0.70969776	     96.70977850	      1.68790405	    -16.83280419	     29.62789279	     11.81986590	    -16.42456826	     36.94472995	      0.64480718	      5.27739800
     16.87333333	     -0.10991063	     11.38258589	      0.54480303	      2.37891372	      0.98339270	      1.03092155	     -6.49984909	    -11.12364338	      0.68312143	    100.36470033	      1.75169447	    -15.94184786	     30.32491695	     11.76971747	    -15.30062781	     39.65016894	      0.69202600	      7.52831718
     16.88000000	     -0.53807131	     11.27922961	      1.54056490	      2.37682589	      0.97893294	      1.03019072	     -3.83822399	    -10.98560820	      0.39694567	    103.69354974	      1.80979386	    -15.13074210	     30.21550493	     12.22007480	    -14.12109982	     42.08603576	      0.73453989	     10.03452348
     16.88666667	     -0.87961888	     11.23868056	      2.53350592	      2.37445850	      0.97493591	      1.02932628	     -1.15679967	    -11.09335108	      0.08613639	    106.81204291	      1.86422183	    -14.26439480	     29.88320385	     12.81692763	    -12.78792942	     44.32848540	      0.77367802	     12.56048718
     16.89333333	     -1.23434060	     11.16119642	      3.51532007	      2.37188316	      0.97142104	      1.02836862	      1.69375429	    -11.29554804	     -0.16765669	    109.68253397	      1.91432135	    -13.48130473	     29.37910927	     13.42342441	    -11.33153183	     46.30565345	      0.80818612	     15.15314760
     16.90000000	     -2.00139470	     10.85801006	      4.66982410	      2.36878320	      0.96793737	      1.02715311	      5.19506041	    -11.32942382	     -0.39941908	    112.35704782	      1.96100042	    -12.97379561	     29.19934438	     13.90059040	     -9.59259061	     48.10907539	      0.83966177	     17.41559879
     16.90666667	     -2.43185835	     10.64263318	      5.67142070	      2.36569449	      0.96545451	      1.02607223	      8.43269597	    -11.59680088	     -0.54772655	    114.66347646	      2.00125520	    -12.37345271	     28.35670011	     14.37145329	     -7.96404830	     49.41586179	      0.86246949	     19.62992320
     16.91333333	     -2.86563452	     10.30563441	      6.58031255	      2.36244225	      0.96360222	      1.02509742	     11.84199221	    -11.75694353	     -0.55596571	    116.62220423	      2.03544144	    -11.82540390	     27.29136625	     14.61880348	     -6.37460903	     50.32309969	      0.87830378	     21.64851228
     16.92000000	     -3.04657411	      9.99440408	      7.52735289	      2.35935510	      0.96270188	      1.02403196	     14.96018522	    -12.03540681	     -0.67045110	    118.12573986	      2.06168309	    -11.23741213	     25.64454930	     14.81320594	     -4.73340297	     50.74153313	      0.88560682	     23.45228641
     16.92666667	     -2.80752296	      9.65606300	      8.10146469	      2.35667616	      0.96313858	      1.02336608	     17.69746914	    -12.15162791	     -0.52227949	    119.11757352	      2.07899385	    -10.63088837	     23.24903339	     14.66449346	     -3.40597604	     50.58252211	      0.88283155	     25.00060127
     16.93333333	     -2.62096408	      9.11789898	      8.79110364	      2.35440109	      0.96424958	      1.02251476	     20.40155194	    -12.07984880	     -0.60014488	    119.58075864	      2.08707796	     -9.99471153	     20.67927200	     14.21949965	     -2.01001765	     50.02064935	      0.87302503	     26.24790320
     16.94000000	     -2.47059329	      8.38611563	      9.56724298	      2.35208147	      0.96554695	      1.02134338	     23.10534523	    -11.93338906	     -0.91442030	    119.69003590	      2.08898521	     -9.25959811	     18.07627583	     13.51328257	     -0.51856715	     49.25297456	      0.85962657	     27.44097060
     16.94666667	     -2.60892774	      7.76119035	     10.05949471	      2.34937717	      0.96665637	      1.02033480	     26.29688596	    -11.85570018	     -0.83672183	    119.63974793	      2.08810752	     -8.43595681	     15.74783679	     12.79981360	      0.59584698	     48.17953540	      0.84089152	     28.11400786
     16.95333333	     -2.73570290	      7.11471604	     10.36897643	      2.34679143	      0.96801070	      1.01950276	     29.46240274	    -11.64601765	     -0.65822736	    119.29514917	      2.08209313	     -7.59373554	     13.34071006	     11.90975272	      1.40046356	     46.83520260	      0.81742849	     28.40064600
     16.96000000	     -3.18601859	      6.73928753	      9.93935142	      2.34463878	      0.96911442	      1.01920561	     33.11713076	    -11.33502265	      0.38760203	    118.69102391	      2.07154916	     -6.74427109	     11.18312946	     11.23529018	      1.44654916	     45.16684082	      0.78831008	     28.53343006
     16.96666667	     -3.63151473	      6.00385466	     10.06083851	      2.34312814	      0.97102365	      1.01804527	     36.30470730	    -10.98013530	      0.51208741	    117.47292591	      2.05028934	     -5.95185023	      8.94520666	     10.29558193	      2.09096035	     43.35188426	      0.75663312	     28.06175244
     16.97333333	     -3.67747488	      5.26671872	      9.39626592	      2.34230789	      0.97386309	      1.01777990	     39.00429166	     -9.93885822	      1.14929021	    115.84460541	      2.02186979	     -5.21960439	      6.18250488	      9.14350665	      1.91074185	     41.15748166	      0.71833357	     27.08860995
     16.98000000	     -4.35106763	      4.45822038	      9.35992901	      2.34184323	      0.97630097	      1.01642863	     42.01358454	     -9.43281560	      1.14357298	    113.88207836	      1.98761723	     -4.51727890	      4.10575621	      8.16653171	      2.33622468	     38.98425391	      0.68040359	     25.62092868
     16.98666667	     -3.95454603	      3.63332928	      8.32039696	      2.34216128	      0.98055637	      1.01636925	     43.71036133	     -7.96547980	      1.62293180	    111.45322490	      1.94522574	     -3.92037810	      0.73011996	      6.89829950	      1.66358466	     36.31292210	      0.63378005	     23.37810438
     16.99333333	     -4.15958904	      2.77515018	      7.68540850	      2.34277632	      0.98429113	      1.01565601	     45.76922111	     -6.85997712	      1.73514243	    108.76382184	      1.89828680	     -3.42231671	     -1.91972327	      5.79655385	      1.29863589	     33.74128670	      0.58889655	     20.62433068
     17.00000000	     -4.43332212	      1.92475791	      6.96657511	      2.34374871	      0.98821453	      1.01494237	     47.67740251	     -5.73033435	      1.80135496	    105.78784409	      1.84634619	     -3.06354063	     -4.45959582	      4.76460481	      0.71869074	     31.11762847	      0.54310507	     17.22815243
     17.00666667	     -4.80741315	      1.10221966	      6.19738940	      2.34511696	      0.99217259	      1.01422378	     49.46266183	     -4.63480181	      1.79797925	    102.55142789	      1.78986007	     -2.82743130	     -6.83886572	      3.81145865	     -0.10704070	     28.49171182	      0.49727418	     13.27303079
